<svg width="48" height="48" viewBox="0 0 48 48" fill="none" xmlns="http://www.w3.org/2000/svg">
<path d="M35.107 13.6371C33.0356 12.6679 30.8208 11.9636 28.5052 11.5625C28.2208 12.0766 27.8886 12.7682 27.6595 13.3183C25.198 12.9481 22.7591 12.9481 20.3429 13.3183C20.1139 12.7682 19.7741 12.0766 19.4871 11.5625C17.1691 11.9636 14.9517 12.6705 12.8803 13.6422C8.70219 19.9558 7.56959 26.1126 8.13589 32.182C10.907 34.2514 13.5925 35.5085 16.2328 36.3311C16.8847 35.4339 17.466 34.4802 17.9669 33.475C17.013 33.1126 16.0994 32.6653 15.2361 32.146C15.4651 31.9763 15.6891 31.7989 15.9056 31.6164C21.1709 34.0791 26.8919 34.0791 32.0943 31.6164C32.3133 31.7989 32.5373 31.9763 32.7638 32.146C31.898 32.6678 30.9818 33.1151 30.0279 33.4776C30.5288 34.4802 31.1077 35.4365 31.7621 36.3336C34.4048 35.511 37.0929 34.2539 39.864 32.182C40.5285 25.146 38.7289 19.0458 35.107 13.6371ZM18.6842 28.4494C17.1036 28.4494 15.8074 26.9738 15.8074 25.1769C15.8074 23.38 17.0759 21.9018 18.6842 21.9018C20.2926 21.9018 21.5887 23.3774 21.5611 25.1769C21.5636 26.9738 20.2926 28.4494 18.6842 28.4494ZM29.3157 28.4494C27.735 28.4494 26.4388 26.9738 26.4388 25.1769C26.4388 23.38 27.7073 21.9018 29.3157 21.9018C30.9239 21.9018 32.2202 23.3774 32.1925 25.1769C32.1925 26.9738 30.9239 28.4494 29.3157 28.4494Z" fill="white" fill-opacity="0.8"/>
</svg>
