<svg width="21" height="20" viewBox="0 0 21 20" fill="none" xmlns="http://www.w3.org/2000/svg">
<path d="M10.0835 13.0333H5.0835" stroke="white" stroke-width="1.5" stroke-linecap="round" stroke-linejoin="round"/>
<path d="M7.58317 15.5333V10.5333" stroke="white" stroke-width="1.5" stroke-linecap="round" stroke-linejoin="round"/>
<path fill-rule="evenodd" clip-rule="evenodd" d="M2.5835 16.9641V8.86831C2.5835 8.40831 2.95683 8.03497 3.41683 8.03497H11.7502C12.2102 8.03497 12.5835 8.40831 12.5835 8.86831V16.9641C12.5835 17.4241 12.2102 17.7975 11.7502 17.7975H3.41683C2.95683 17.7975 2.5835 17.425 2.5835 16.9641Z" stroke="white" stroke-width="1.5" stroke-linecap="round" stroke-linejoin="round"/>
<path d="M7.5835 8.03585V3.03585C7.5835 2.57585 7.95683 2.20251 8.41683 2.20251H17.5835C18.0435 2.20251 18.4168 2.57585 18.4168 3.03585V12.2025C18.4168 12.6625 18.0435 13.0358 17.5835 13.0358H12.5835" stroke="white" stroke-width="1.5" stroke-linecap="round" stroke-linejoin="round"/>
</svg>
