<svg width="164" height="26" viewBox="0 0 164 26" fill="none" xmlns="http://www.w3.org/2000/svg">
<g clip-path="url(#clip0_88_1708)">
<path d="M18.4033 9.66393H13.2296L15.8047 0H6.94555L0 26H8.85912L11.4578 16.3361H16.6315L18.4033 9.66393Z" fill="white"/>
<path d="M24.0023 0L17.104 26H25.8686L32.8142 0H24.0023Z" fill="white"/>
<path d="M126.13 19.3041L124.358 26H133.312L135.107 19.3041H126.13Z" fill="white"/>
<path d="M128.209 0H119.492L112.546 26H121.311L128.209 0Z" fill="white"/>
<path d="M147.368 16.3361H155.566L157.338 9.66393H149.14L151.833 0H142.856L135.911 26H157.409L159.181 19.3041H146.542L147.368 16.3361Z" fill="white"/>
<path d="M154.881 0L153.109 6.69589H162.228L164 0H154.881Z" fill="white"/>
<path d="M109.121 0H90.6465L83.7009 26H92.5837L94.3555 19.3041H94.3319L95.7966 13.8904L96.6234 10.8274L97.7338 6.67215H103.285C105.057 6.67215 105.908 7.85936 105.435 9.64018L103.663 16.3361C103.191 18.1169 101.679 19.3041 99.8836 19.3041H97.403L95.6312 26H102.175C106.617 26 110.373 23.032 111.554 18.568L114.507 7.43196C115.688 2.96804 113.562 0 109.121 0Z" fill="white"/>
<path d="M83.5829 5.34247C83.5829 1.85205 81.1732 0 76.8972 0H61.0925L54.147 26H63.0061L63.4786 24.1954L67.7782 7.97808H67.8018L68.1562 6.67215H71.5817C73.1645 6.67215 74.393 7.05205 73.9205 8.85662C73.5189 10.305 72.0306 10.7562 70.5186 10.7562L68.7468 17.4521L72.4322 26H81.811L77.4878 15.8612C81.0314 13.6292 83.5829 9.42648 83.5829 5.34247Z" fill="white"/>
<path d="M47.0124 9.66393H45.0516C42.6419 9.66393 42.2876 8.99909 42.5002 8.16804C42.7128 7.36073 43.4924 6.69589 45.8312 6.67215L47.5794 0H44.2956C37.5391 0 34.7278 3.94155 33.6174 8.16804C32.5071 12.3708 33.1686 16.3361 39.9251 16.3361H41.8859C44.2956 16.3361 44.65 17.0009 44.4374 17.832C44.2248 18.6393 43.4452 19.3279 41.0827 19.3279H31.4676L29.6958 26.0237H42.6183C49.3749 26.0237 52.1862 22.0822 53.2965 17.8557C54.4305 13.6292 53.769 9.66393 47.0124 9.66393Z" fill="white"/>
<path d="M48.8552 6.69589H55.092L56.8639 0H50.6507L48.8552 6.69589Z" fill="white"/>
</g>
<defs>
<clipPath id="clip0_88_1708">
<rect width="164" height="26" fill="white"/>
</clipPath>
</defs>
</svg>
