<svg width="48" height="48" viewBox="0 0 48 48" fill="none" xmlns="http://www.w3.org/2000/svg">
<g opacity="0.8" clip-path="url(#clip0_42_1201)">
<path fill-rule="evenodd" clip-rule="evenodd" d="M28.76 28.3787C27.564 28.3787 26.559 27.4087 26.559 26.2127C26.559 25.0167 27.564 24.0147 28.76 24.0147C29.956 24.0147 30.926 25.0167 30.926 26.2127C30.926 27.4087 29.956 28.3787 28.76 28.3787ZM29.268 32.5827C28.154 33.6957 26.436 34.2367 24.016 34.2367C24.011 34.2367 24.005 34.2357 23.999 34.2357C23.994 34.2357 23.988 34.2367 23.982 34.2367C21.562 34.2367 19.845 33.6957 18.732 32.5827C18.39 32.2407 18.39 31.6877 18.732 31.3467C19.073 31.0057 19.626 31.0057 19.968 31.3467C20.736 32.1147 22.049 32.4887 23.982 32.4887C23.988 32.4887 23.994 32.4897 23.999 32.4897C24.005 32.4897 24.011 32.4887 24.016 32.4887C25.949 32.4887 27.263 32.1147 28.032 31.3467C28.374 31.0047 28.927 31.0057 29.268 31.3467C29.609 31.6887 29.609 32.2417 29.268 32.5827ZM17.074 26.2127C17.074 25.0177 18.077 24.0147 19.272 24.0147C20.468 24.0147 21.438 25.0177 21.438 26.2127C21.438 27.4087 20.468 28.3787 19.272 28.3787C18.077 28.3787 17.074 27.4087 17.074 26.2127ZM34.664 12.4147C35.474 12.4147 36.133 13.0737 36.133 13.8827C36.133 14.6927 35.474 15.3517 34.664 15.3517C33.854 15.3517 33.195 14.6927 33.195 13.8827C33.195 13.0737 33.854 12.4147 34.664 12.4147ZM40 23.8337C40 21.7127 38.275 19.9877 36.154 19.9877C35.236 19.9877 34.393 20.3117 33.731 20.8507C31.386 19.3767 28.41 18.4887 25.22 18.3007L26.884 13.0397L31.457 14.1167C31.577 15.7817 32.969 17.0997 34.664 17.0997C36.437 17.0997 37.88 15.6567 37.88 13.8827C37.88 12.1097 36.437 10.6667 34.664 10.6667C33.424 10.6667 32.346 11.3727 31.809 12.4037L26.495 11.1527C26.05 11.0477 25.6 11.3037 25.462 11.7397L23.396 18.2697C19.959 18.3537 16.728 19.2447 14.211 20.8047C13.558 20.2937 12.737 19.9877 11.846 19.9877C9.725 19.9877 8 21.7127 8 23.8337C8 25.1447 8.66 26.3037 9.665 26.9977C9.623 27.3027 9.601 27.6097 9.601 27.9207C9.601 30.5717 11.142 33.0377 13.94 34.8637C16.622 36.6147 20.172 37.5787 23.935 37.5787C27.698 37.5787 31.248 36.6147 33.93 34.8637C36.728 33.0377 38.269 30.5717 38.269 27.9207C38.269 27.6377 38.25 27.3567 38.215 27.0777C39.287 26.3947 40 25.1957 40 23.8337Z" fill="white"/>
</g>
<defs>
<clipPath id="clip0_42_1201">
<rect width="32" height="32" fill="white" transform="translate(8 8)"/>
</clipPath>
</defs>
</svg>
